HIERARCHY
ROOT Hips
{
	OFFSET 0.000000 0.000000 0.000000
	CHANNELS 6 Xposition Yposition Zposition Zrotation Yrotation Xrotation 
	JOINT LHipJoint
	{
		OFFSET 0.000000 0.000000 0.000000
		CHANNELS 3 Zrotation Yrotation Xrotation
		JOINT LeftUpLeg
		{
			OFFSET 1.363060 -1.794630 0.839290
			CHANNELS 3 Zrotation Yrotation Xrotation
			JOINT LeftLeg
			{
				OFFSET 2.448110 -6.726130 0.000000
				CHANNELS 3 Zrotation Yrotation Xrotation
				JOINT LeftFoot
				{
					OFFSET 2.562200 -7.039590 0.000000
					CHANNELS 3 Zrotation Yrotation Xrotation
					JOINT LeftToeBase
					{
						OFFSET 0.157640 -0.433110 2.322550
						CHANNELS 3 Zrotation Yrotation Xrotation
						End Site
						{
							OFFSET 0.000000 0.000000 0.000000
						}
					}
				}
			}
		}
	}
	JOINT RHipJoint
	{
		OFFSET 0.000000 0.000000 0.000000
		CHANNELS 3 Zrotation Yrotation Xrotation
		JOINT RightUpLeg
		{
			OFFSET -1.305520 -1.794630 0.839290
			CHANNELS 3 Zrotation Yrotation Xrotation
			JOINT RightLeg
			{
				OFFSET -2.542530 -6.985550 0.000000
				CHANNELS 3 Zrotation Yrotation Xrotation
				JOINT RightFoot
				{
					OFFSET -2.568260 -7.056230 0.000000
					CHANNELS 3 Zrotation Yrotation Xrotation
					JOINT RightToeBase
					{
						OFFSET -0.164730 -0.452590 2.363150
						CHANNELS 3 Zrotation Yrotation Xrotation
						End Site
						{
							OFFSET 0.000000 0.000000 0.000000
						}
					}
				}
			}
		}
	}
}
MOTION
Frames: 24
Frame Time: 0.008333
-3.317558 16.956088 0.253302 -126.882260 85.927620 -131.799073 -10.978449 1.740987 -1.328915 -19.837441 27.938909 -25.870463 -2.222813 0.086394 17.064797 3.339142 20.249969 -9.959868 179.316501 0.000000 -6.265300 8.962151 -4.641723 -1.639567 0.312325 -18.155859 11.098679 1.163345 -2.398285 26.094011 0.253214 4.574578 7.373831 0.949699 0.000000 -78.588100
-3.172291 16.938921 0.201870 -126.170100 85.874562 -131.244696 -11.010639 1.757397 -1.303615 -19.457175 27.697970 -24.906912 -2.202762 0.052308 17.095627 3.387288 20.301506 -10.924828 178.932000 -0.000000 -7.477100 9.119449 -4.686227 -1.702360 -0.617492 -18.641115 10.277625 0.977242 -2.579067 28.532473 0.322873 6.190408 9.160474 1.538900 -0.000000 -81.107601
-3.027715 16.922762 0.151243 -125.710772 85.877088 -130.920966 -11.018831 1.788564 -1.298390 -19.190924 27.575872 -24.051568 -2.195336 0.027561 17.229998 3.448760 20.402928 -11.965058 178.512200 -0.000000 -8.320700 9.301239 -4.712376 -1.732341 -1.566904 -19.022863 9.314921 0.765285 -2.739780 31.070682 0.345793 7.809577 11.174345 2.254500 -0.000001 -83.293000
-2.884526 16.907972 0.101865 -125.591461 85.923161 -130.909347 -11.004150 1.834062 -1.310204 -19.034300 27.556145 -23.315350 -2.198864 0.013506 17.467326 3.520262 20.545686 -13.032370 178.073700 0.000000 -8.865400 9.499984 -4.715880 -1.730539 -2.489542 -19.281583 8.222606 0.535962 -2.875859 33.671987 0.316434 9.348349 13.376949 3.084600 -0.000001 -84.982399
-2.743417 16.894902 0.053895 -125.905881 85.994753 -131.299804 -10.970243 1.892127 -1.334019 -18.971890 27.610190 -22.698695 -2.210620 0.010804 17.799081 3.597295 20.715653 -14.079490 177.634400 0.000000 -9.179700 9.705992 -4.694004 -1.700813 -3.339077 -19.406721 7.019191 0.300495 -2.985673 36.299272 0.236421 10.710574 15.698322 3.989200 0.000001 -86.032600
-2.605010 16.883761 0.007500 -126.786131 86.074183 -132.222945 -10.921564 1.961366 -1.363847 -18.985859 27.700832 -22.187607 -2.227262 0.019424 18.205696 3.674750 20.897874 -15.056576 177.215401 -0.000000 -9.255500 9.911084 -4.645354 -1.650362 -4.085207 -19.405923 5.725084 0.069790 -3.070773 38.921689 0.113946 11.801130 18.045963 4.898800 -0.000000 -86.357400
-2.469901 16.874659 -0.037455 -128.330123 86.139189 -133.778919 -10.864472 2.038789 -1.393917 -19.051091 27.789889 -21.758993 -2.245651 0.038090 18.661677 3.747660 21.073446 -15.933338 176.832300 0.000000 -9.164700 10.106731 -4.570949 -1.587901 -4.703379 -19.295231 4.365478 -0.147468 -3.135703 41.510747 -0.039128 12.518696 20.308320 5.712700 0.000000 -85.936400
-2.338477 16.867667 -0.081281 -130.618523 86.163762 -136.053506 -10.806203 2.120999 -1.418961 -19.138593 27.838646 -21.379007 -2.263086 0.064611 19.136429 3.811952 21.223752 -16.696605 176.495100 -0.000000 -9.006400 10.285435 -4.473169 -1.524132 -5.179733 -19.103221 2.972174 -0.346790 -3.186410 44.035362 -0.210560 12.762741 22.366305 6.311400 0.000000 -84.885700
-2.211091 16.862746 -0.124451 -133.488603 86.133859 -138.889290 -10.750483 2.204419 -1.437622 -19.228326 27.831145 -21.017649 -2.277213 0.095845 19.594801 3.863505 21.334416 -17.323211 176.217600 0.000000 -8.697000 10.446737 -4.356391 -1.464947 -5.515084 -18.847838 1.554232 -0.528411 -3.230263 46.492461 -0.391209 12.473979 24.123905 6.595400 -0.000001 -83.120900
-2.087834 16.859782 -0.167591 -136.844585 86.017885 -142.200410 -10.703563 2.284554 -1.446981 -19.289549 27.738528 -20.631820 -2.286811 0.128000 20.004586 3.901609 21.392629 -17.840981 175.992800 0.000000 -8.460099 10.585563 -4.224113 -1.421467 -5.708296 -18.567504 0.154041 -0.694560 -3.271773 48.837760 -0.575168 11.589653 25.481655 6.475200 0.000000 -81.040399
-1.968709 16.858624 -0.211370 -140.340066 85.801540 -145.648522 -10.667600 2.357220 -1.447773 -19.303645 27.558523 -20.191327 -2.290683 0.157175 20.335429 3.925380 21.392828 -18.256529 175.820301 -0.000000 -8.255000 10.702786 -4.081368 -1.397879 -5.766362 -18.280891 -1.211756 -0.848634 -3.315206 51.053170 -0.760116 10.114016 26.371084 5.924200 -0.000000 -78.682200
-1.853556 16.859144 -0.256463 -143.655128 85.475069 -148.921019 -10.643895 2.418588 -1.441170 -19.257336 27.292898 -19.670551 -2.288303 0.179561 20.562756 3.936205 21.336243 -18.593808 175.691099 -0.000000 -8.135400 10.798785 -3.932652 -1.397186 -5.699369 -18.004279 -2.523358 -0.993009 -3.362549 53.109675 -0.945814 8.096043 26.746569 4.971900 -0.000000 -76.195000
-1.742069 16.861191 -0.303437 -146.555517 85.038242 -151.789317 -10.633092 2.466399 -1.428605 -19.143784 26.950973 -19.052872 -2.279498 0.192317 20.668678 3.936247 21.229821 -18.874146 175.595400 0.000000 -8.104200 10.873889 -3.782120 -1.419741 -5.519317 -17.746654 -3.765288 -1.128319 -3.414173 54.978676 -1.132106 5.637436 26.584258 3.704599 0.000000 -73.618701
-1.633891 16.864621 -0.352777 -148.929504 84.497753 -154.144631 -10.635309 2.499961 -1.411426 -18.962775 26.545140 -18.331816 -2.264408 0.193741 20.642328 3.928614 21.086115 -19.117619 175.522900 -0.000000 -8.163500 10.928213 -3.633002 -1.463483 -5.239715 -17.509442 -4.926394 -1.253156 -3.468647 56.629686 -1.318213 2.882018 25.892502 2.251200 0.000000 -70.997900
-1.528618 16.869309 -0.404779 -150.778293 83.865451 -155.988942 -10.650008 2.520435 -1.390661 -18.719792 26.090044 -17.509917 -2.243453 0.183492 20.480937 3.916349 20.919225 -19.338058 175.465400 -0.000000 -8.288900 10.962172 -3.487976 -1.524028 -4.874856 -17.288004 -6.000853 -1.364410 -3.523425 58.036539 -1.501637 0.001678 24.708995 0.761299 0.000000 -68.293000
-1.425815 16.875172 -0.459626 -152.171692 83.155295 -157.389616 -10.676031 2.529978 -1.366818 -18.424472 25.598761 -16.597786 -2.217114 0.162199 20.188232 3.902241 20.743249 -19.543099 175.417300 0.000000 -8.446800 10.976585 -3.349148 -1.595284 -4.439001 -17.073236 -6.988636 -1.457820 -3.575185 59.178411 -1.678214 -2.827263 23.103106 -0.621699 0.000000 -65.445700
-1.325050 16.882133 -0.517231 -153.206886 82.380779 -158.439200 -10.711656 2.531153 -1.339753 -18.089137 25.082216 -15.612458 -2.185977 0.131108 19.774730 3.888351 20.568660 -19.736811 175.374899 -0.000000 -8.620700 10.972702 -3.218190 -1.669236 -3.945195 -16.851323 -7.893977 -1.528808 -3.619868 60.038604 -1.843225 -5.450510 21.182712 -1.787701 -0.000000 -62.526100
-1.225950 16.890117 -0.577456 -153.977696 81.553647 -159.224817 -10.755197 2.526509 -1.309006 -17.726882 24.548271 -14.575087 -2.150523 0.091972 19.255321 3.875494 20.401140 -19.915440 175.338600 0.000000 -8.772300 10.951989 -3.096245 -1.738002 -3.405163 -16.608180 -8.726829 -1.573586 -3.654019 60.612317 -1.990532 -7.747369 19.065005 -2.671800 0.000001 -59.521300
-1.128202 16.899015 -0.639929 -154.565957 80.683685 -159.820812 -10.804765 2.518267 -1.273627 -17.350709 24.002243 -13.509020 -2.111472 0.046578 18.648613 3.863431 20.240046 -20.075004 175.310000 -0.000000 -8.889500 10.916137 -2.983903 -1.793411 -2.827935 -16.328127 -9.499810 -1.590007 -3.674561 60.901962 -2.114910 -9.646807 16.880927 -3.261400 -0.000001 -56.552999
-1.031471 16.908723 -0.704236 -155.035913 79.778460 -160.283114 -10.858882 2.508299 -1.232599 -16.971108 23.446942 -12.437618 -2.069671 -0.003179 17.974373 3.850558 20.078614 -20.206935 175.293600 -0.000000 -8.941501 10.866745 -2.881058 -1.828985 -2.219445 -15.997819 -10.228541 -1.577963 -3.679764 60.920476 -2.211540 -11.119947 14.742571 -3.583300 -0.000000 -53.685700
-0.935558 16.919041 -0.769838 -155.437269 78.843717 -160.654485 -10.915811 2.497960 -1.184797 -16.597910 22.884372 -11.382919 -2.026427 -0.055793 17.253110 3.834658 19.904787 -20.307593 175.292900 0.000000 -8.935900 10.805636 -2.787102 -1.838696 -1.584458 -15.603376 -10.928067 -1.539478 -3.668654 60.684623 -2.278619 -12.181567 12.755138 -3.694100 -0.000000 -51.116401
-0.840273 16.929747 -0.836194 -155.805531 77.883183 -160.963981 -10.974267 2.488329 -1.129373 -16.237504 22.315974 -10.363430 -1.983239 -0.109936 16.503673 3.812891 19.703473 -20.373093 175.312200 -0.000000 -8.868700 10.734413 -2.701045 -1.818609 -0.925888 -15.133789 -11.612919 -1.478126 -3.641619 60.217740 -2.316124 -12.871890 10.986853 -3.657400 0.000000 -48.966900
-0.745411 16.940499 -0.902761 -156.166821 76.899323 -161.233058 -11.033043 2.480089 -1.066150 -15.894383 21.744185 -9.393608 -1.941856 -0.164642 15.742704 3.782356 19.458291 -20.403104 175.354100 0.000001 -8.750800 10.654682 -2.621544 -1.766391 -0.247363 -14.579911 -12.295603 -1.398322 -3.599999 59.546185 -2.326469 -13.248929 9.474634 -3.532900 0.000000 -47.334400
-0.650895 16.950973 -0.969067 -156.538076 75.893508 -161.475800 -11.091284 2.473662 -0.995598 -15.570663 21.171691 -8.482482 -1.904015 -0.219260 14.983199 3.740533 19.154357 -20.400321 175.420100 0.000000 -8.590799 10.567761 -2.546916 -1.681698 0.446262 -13.935970 -12.985338 -1.304441 -3.545773 58.697446 -2.313715 -13.377179 8.221321 -3.366200 0.000000 -46.232300
